<?xml version="1.0" encoding="UTF-8" standalone="no"?>
<!-- Created with Inkscape (http://www.inkscape.org/) -->

<svg
   xmlns:dc="http://purl.org/dc/elements/1.1/"
   xmlns:cc="http://creativecommons.org/ns#"
   xmlns:rdf="http://www.w3.org/1999/02/22-rdf-syntax-ns#"
   xmlns:svg="http://www.w3.org/2000/svg"
   xmlns="http://www.w3.org/2000/svg"
   xmlns:xlink="http://www.w3.org/1999/xlink"
   xmlns:sodipodi="http://sodipodi.sourceforge.net/DTD/sodipodi-0.dtd"
   xmlns:inkscape="http://www.inkscape.org/namespaces/inkscape"
   width="84.870438mm"
   height="82.41362mm"
   viewBox="0 0 84.870438 82.413622"
   version="1.1"
   id="svg8"
   inkscape:version="0.92.1 r15371"
   sodipodi:docname="logo.svg"
   inkscape:export-filename="C:\Users\brigh\Desktop\disegno.png"
   inkscape:export-xdpi="942.25"
   inkscape:export-ydpi="942.25">
  <sodipodi:namedview
     id="base"
     pagecolor="#ae2589"
     bordercolor="#666666"
     borderopacity="1.0"
     inkscape:pageopacity="0"
     inkscape:pageshadow="2"
     inkscape:zoom="1.4"
     inkscape:cx="-38.83612"
     inkscape:cy="183.01666"
     inkscape:document-units="mm"
     inkscape:current-layer="layer1"
     showgrid="false"
     inkscape:window-width="1366"
     inkscape:window-height="705"
     inkscape:window-x="-8"
     inkscape:window-y="-8"
     inkscape:window-maximized="1"
     showguides="false"
     fit-margin-top="2"
     fit-margin-left="2"
     fit-margin-right="2"
     fit-margin-bottom="2" />
  <defs
     id="defs2">
    <linearGradient
       inkscape:collect="always"
       id="linearGradient4614">
      <stop
         style="stop-color:#d25bc1;stop-opacity:1;"
         offset="0"
         id="stop4610" />
      <stop
         style="stop-color:#d25bc1;stop-opacity:0;"
         offset="1"
         id="stop4612" />
    </linearGradient>
    <linearGradient
       inkscape:collect="always"
       id="linearGradient4606">
      <stop
         style="stop-color:#d622d6;stop-opacity:1;"
         offset="0"
         id="stop4602" />
      <stop
         style="stop-color:#d622d6;stop-opacity:0;"
         offset="1"
         id="stop4604" />
    </linearGradient>
    <linearGradient
       inkscape:collect="always"
       id="linearGradient4598">
      <stop
         style="stop-color:#ff8cfb;stop-opacity:1;"
         offset="0"
         id="stop4594" />
      <stop
         style="stop-color:#ff8cfb;stop-opacity:0;"
         offset="1"
         id="stop4596" />
    </linearGradient>
    <linearGradient
       inkscape:collect="always"
       xlink:href="#linearGradient4598"
       id="linearGradient4600"
       x1="56.915928"
       y1="122.81912"
       x2="115.9647"
       y2="122.81912"
       gradientUnits="userSpaceOnUse" />
    <linearGradient
       inkscape:collect="always"
       xlink:href="#linearGradient4606"
       id="linearGradient4608"
       x1="97.883827"
       y1="134.23962"
       x2="131.83176"
       y2="134.23962"
       gradientUnits="userSpaceOnUse"
       gradientTransform="translate(-5.8208336,0.52916663)" />
    <linearGradient
       inkscape:collect="always"
       xlink:href="#linearGradient4614"
       id="linearGradient4616"
       x1="39.738937"
       y1="135.98564"
       x2="79.74334"
       y2="135.98564"
       gradientUnits="userSpaceOnUse"
       gradientTransform="translate(5.7830364,-26.231548)" />
  </defs>
  <metadata
     id="metadata5">
    <rdf:RDF>
      <cc:Work
         rdf:about="">
        <dc:format>image/svg+xml</dc:format>
        <dc:type
           rdf:resource="http://purl.org/dc/dcmitype/StillImage" />
        <dc:title />
      </cc:Work>
    </rdf:RDF>
  </metadata>
  <g
     id="layer1"
     inkscape:groupmode="layer"
     inkscape:label="Livello 1"
     transform="translate(-43.191452,-59.806473)">
    <path
       id="path3699-5-5"
       d="m 95.324817,133.01764 c 0,0 -3.542321,4.18437 -3.542321,4.18437 0,0 17.113074,3.01808 17.113074,3.01808 0,0 17.16632,-3.01808 17.16632,-3.01808 0,0 -3.46854,-4.18438 -3.46854,-4.18438 0,0 -13.62096,-1.50989 -13.62096,-1.50989 0,0 -13.647573,1.5099 -13.647573,1.5099"
       style="fill:#4c004d;fill-opacity:1;stroke-width:0.12726639"
       inkscape:connector-curvature="0"
       inkscape:export-xdpi="942.25"
       inkscape:export-ydpi="942.25" />
    <path
       style="fill:url(#linearGradient4608);fill-opacity:1;stroke:none;stroke-width:0.07682839"
       d="m 100.41004,137.59135 c -4.574446,-0.81232 -8.330504,-1.49111 -8.346794,-1.50842 -0.0163,-0.0173 0.74989,-0.951 1.70263,-2.07484 l 1.732251,-2.04335 6.821713,-0.75219 6.82172,-0.7522 6.78423,0.74716 c 3.73133,0.41094 6.80726,0.77004 6.83541,0.798 0.0281,0.028 0.79566,0.94975 1.7056,2.04839 1.3468,1.62613 1.63012,2.00787 1.5238,2.05309 -0.21098,0.0897 -16.79046,2.98005 -17.03791,2.97023 -0.12399,-0.005 -3.96818,-0.67356 -8.54265,-1.48587 z"
       id="path3720-7-5"
       inkscape:connector-curvature="0"
       inkscape:export-xdpi="942.25"
       inkscape:export-ydpi="942.25" />
    <path
       id="path3699-5"
       d="m 49.365742,107.69051 c 0,0 -4.17429,4.93089 -4.17429,4.93089 0,0 20.166141,3.55652 20.166141,3.55652 0,0 20.228874,-3.55652 20.228874,-3.55652 0,0 -4.087335,-4.9309 -4.087335,-4.9309 0,0 -16.051008,-1.77925 -16.051008,-1.77925 0,0 -16.082382,1.77926 -16.082382,1.77926"
       inkscape:transform-center-x="1.413471e-006"
       style="fill:#4c004d;fill-opacity:1;stroke-width:0.14997138"
       inkscape:connector-curvature="0"
       inkscape:transform-center-y="3.1029904e-006"
       inkscape:export-xdpi="942.25"
       inkscape:export-ydpi="942.25" />
    <path
       style="fill:url(#linearGradient4616);fill-opacity:1;stroke:none;stroke-width:0.09053498"
       d="m 55.358221,113.0802 c -5.39057,-0.95725 -9.816742,-1.75713 -9.835942,-1.77753 -0.01917,-0.0204 0.883679,-1.12066 2.006393,-2.445 l 2.041297,-2.4079 8.038756,-0.88638 8.038748,-0.88639 7.99457,0.88045 c 4.397012,0.48425 8.02171,0.90742 8.054879,0.94038 0.0332,0.033 0.93762,1.11917 2.009883,2.41382 1.58708,1.91625 1.920955,2.36608 1.795662,2.41938 -0.248615,0.10573 -19.785966,3.51169 -20.077566,3.50013 -0.146106,-0.006 -4.676114,-0.79373 -10.06668,-1.75096 z"
       id="path3720-7"
       inkscape:connector-curvature="0"
       inkscape:export-xdpi="942.25"
       inkscape:export-ydpi="942.25" />
    <path
       id="path3699"
       d="m 62.589545,119.77316 c 0,0 -6.161497,7.27827 -6.161497,7.27827 0,0 29.766377,5.24963 29.766377,5.24963 0,0 29.858965,-5.24963 29.858965,-5.24963 0,0 -6.03314,-7.27827 -6.03314,-7.27827 0,0 -23.692195,-2.62629 -23.692195,-2.62629 0,0 -23.73851,2.62629 -23.73851,2.62629"
       inkscape:transform-center-x="1.5219631e-006"
       style="fill:#4c004d;fill-opacity:1;stroke-width:0.22136629"
       inkscape:connector-curvature="0"
       inkscape:export-xdpi="942.25"
       inkscape:export-ydpi="942.25" />
    <path
       style="fill:url(#linearGradient4600);fill-opacity:1;stroke:none;stroke-width:0.13363476"
       d="m 71.434776,127.72864 c -7.956783,-1.41294 -14.490065,-2.59362 -14.518404,-2.62374 -0.02834,-0.0301 1.304356,-1.65414 2.961547,-3.60894 l 3.013072,-3.55419 11.865655,-1.30836 11.865655,-1.30837 11.80044,1.2996 c 6.490239,0.71479 11.840499,1.33941 11.889459,1.38805 0.049,0.0486 1.38398,1.65197 2.9667,3.56295 2.34262,2.82847 2.83544,3.49247 2.6505,3.57113 -0.36697,0.15608 -29.205208,5.18346 -29.635627,5.16639 -0.215664,-0.008 -6.902212,-1.17159 -14.858997,-2.58452 z"
       id="path3720"
       inkscape:connector-curvature="0"
       inkscape:export-xdpi="942.25"
       inkscape:export-ydpi="942.25" />
    <path
       sodipodi:type="star"
       style="fill:#fde300;fill-opacity:1;stroke:#ffbd42;stroke-width:0.74899999;stroke-miterlimit:32.2;stroke-dasharray:none;stroke-opacity:1;stroke-linejoin:round;stroke-linecap:round;paint-order:markers fill stroke"
       id="path4584"
       sodipodi:sides="5"
       sodipodi:cx="92.818123"
       sodipodi:cy="72.310043"
       sodipodi:r1="10.767534"
       sodipodi:r2="5.3837671"
       sodipodi:arg1="0.50160405"
       sodipodi:arg2="1.1299226"
       inkscape:flatsided="false"
       inkscape:rounded="0"
       inkscape:randomized="0"
       d="m 102.25923,77.487425 -7.143693,-0.308415 -4.303934,5.709959 -1.914203,-6.889362 -6.760482,-2.328809 5.960651,-3.949446 0.125726,-7.149242 5.598088,4.44847 6.838187,-2.089665 -2.500845,6.698751 z"
       inkscape:transform-center-x="0.62005095"
       inkscape:transform-center-y="0.4204976"
       inkscape:export-xdpi="942.25"
       inkscape:export-ydpi="942.25" />
    <path
       style="fill:#38003a;fill-opacity:1;stroke:#ae2589;stroke-width:0.30000001;stroke-miterlimit:4;stroke-dasharray:none;stroke-opacity:1"
       d="m 83.434268,123.67215 c -0.305258,-0.0821 -0.55151,-0.23077 -0.817938,-0.49384 -0.279399,-0.27588 -0.478368,-0.64673 -0.552328,-1.02945 -0.0362,-0.18733 -0.04062,-2.7507 -0.02112,-12.26195 l 0.02464,-12.025062 -0.107832,-0.107831 c -0.05931,-0.05927 -0.133195,-0.107831 -0.164195,-0.107831 -0.08978,0 -0.237331,0.07833 -0.269648,0.143144 -0.0163,0.03271 -0.03795,2.30593 -0.04808,5.05158 l -0.01841,4.99211 -0.09708,0.20705 c -0.24164,0.51534 -0.79712,0.88062 -1.337239,0.87936 -0.721721,-0.002 -1.345251,-0.53373 -1.44981,-1.23709 -0.01832,-0.12324 -0.02171,-2.47221 -0.0078,-5.41248 l 0.02454,-5.194729 0.0971,-0.444667 c 0.219485,-1.005152 0.635632,-1.905126 1.250943,-2.705343 0.276675,-0.35982 0.927332,-0.981676 1.319135,-1.260749 0.584112,-0.416044 1.402222,-0.806696 2.065306,-0.986193 0.702535,-0.190175 0.722207,-0.191737 2.777048,-0.220232 2.0843,-0.02889 2.185024,-0.03713 2.95881,-0.241621 1.71612,-0.45353 3.073991,-1.596938 3.871048,-3.25965 0.608182,-1.268709 0.890458,-2.609446 0.961828,-4.568438 0.03446,-0.946054 0.06965,-1.122415 0.293402,-1.470717 0.610761,-0.950732 1.990285,-1.057378 2.749829,-0.212577 0.380629,0.423347 0.475173,0.788228 0.440935,1.701715 -0.095,2.534027 -0.487347,4.34292 -1.31446,6.060133 -1.105431,2.295018 -2.909344,3.965046 -5.199132,4.813238 l -0.285128,0.105617 -0.0016,2.173693 c -0.0067,9.65283 0.0039,20.42073 0.02215,22.60267 0.01894,2.26271 0.01418,2.67733 -0.03383,2.93983 -0.131914,0.7213 -0.576389,1.26994 -1.231618,1.52025 -0.297422,0.11362 -0.839685,0.13961 -1.134696,0.0544 -0.695473,-0.20089 -1.1564,-0.65533 -1.402655,-1.38287 -0.06559,-0.19377 -0.0694,-0.48947 -0.08704,-6.76135 -0.01826,-6.48577 -0.01925,-6.55983 -0.09214,-6.65935 -0.1457,-0.199 -0.450127,-0.19255 -0.623266,0.0132 l -0.09516,0.11309 -6.22e-4,6.49062 c -6.23e-4,7.19594 0.01558,6.71982 -0.245584,7.21684 -0.247249,0.47052 -0.701938,0.82911 -1.229233,0.96943 -0.253808,0.0675 -0.730434,0.0657 -0.989217,-0.004 z m 2.412885,-33.028689 c -0.811626,-0.111853 -1.518075,-0.459375 -2.08796,-1.027128 -0.446387,-0.444717 -0.753838,-0.958008 -0.943603,-1.575351 -0.09198,-0.299232 -0.09968,-0.37406 -0.101563,-0.986942 -0.0019,-0.587198 0.0077,-0.696843 0.08309,-0.95723 0.392475,-1.355824 1.41756,-2.319571 2.78857,-2.621709 0.355979,-0.07845 1.062738,-0.07739 1.445714,0.0022 0.402525,0.08361 0.86829,0.26989 1.217426,0.486898 0.329915,0.205062 0.852114,0.708252 1.065512,1.026723 0.833676,1.244167 0.839701,2.817611 0.01559,4.071069 -0.196079,0.298233 -0.670033,0.777431 -0.963977,0.974649 -0.727975,0.488415 -1.692338,0.720767 -2.518793,0.606869 z"
       id="path4574"
       inkscape:connector-curvature="0"
       inkscape:export-xdpi="942.25"
       inkscape:export-ydpi="942.25" />
  </g>
</svg>
